HIERARCHY
ROOT newVegas:Hips
{
	OFFSET 0.000000 96.479958 0.000000
	CHANNELS 6 Xposition Yposition Zposition Xrotation Yrotation Zrotation
	JOINT newVegas:Pelvis
	{
		OFFSET 0.000000 0.000000 0.000000
		CHANNELS 3 Xrotation Yrotation Zrotation
		JOINT newVegas:LeftUpLeg
		{
			OFFSET 18.735201 -5.666702 -4.541200
			CHANNELS 3 Xrotation Yrotation Zrotation
			JOINT newVegas:LeftLeg
			{
				OFFSET -0.021200 -31.938179 0.493100
				CHANNELS 3 Xrotation Yrotation Zrotation
				JOINT newVegas:LeftFoot
				{
					OFFSET 0.021200 -31.938179 -4.336299
					CHANNELS 3 Xrotation Yrotation Zrotation
					JOINT newVegas:LeftToeBase
					{
						OFFSET 0.943001 -26.722000 15.023500
						CHANNELS 3 Xrotation Yrotation Zrotation
						End Site
						{
							OFFSET 0.000000 30.670183 0.000000
						}
					}
				}
				JOINT newVegas:Left_PantLeg
				{
					OFFSET 0.663870 -9.044666 -1.108900
					CHANNELS 3 Xrotation Yrotation Zrotation
					End Site
					{
						OFFSET 1.415995 20.635357 0.000000
					}
				}
			}
		}
		JOINT newVegas:RightUpLeg
		{
			OFFSET -18.735201 -5.666702 -4.541200
			CHANNELS 3 Xrotation Yrotation Zrotation
			JOINT newVegas:RightLeg
			{
				OFFSET 0.018946 -31.938133 0.493100
				CHANNELS 3 Xrotation Yrotation Zrotation
				JOINT newVegas:RightFoot
				{
					OFFSET -0.018946 -31.938126 -4.336299
					CHANNELS 3 Xrotation Yrotation Zrotation
					JOINT newVegas:RightToeBase
					{
						OFFSET -0.943001 -26.722004 15.023500
						CHANNELS 3 Xrotation Yrotation Zrotation
						End Site
						{
							OFFSET 0.000000 30.670187 0.000000
						}
					}
				}
				JOINT newVegas:Right_PantLeg
				{
					OFFSET -0.661674 -9.044716 -1.108900
					CHANNELS 3 Xrotation Yrotation Zrotation
					End Site
					{
						OFFSET -1.415958 20.635269 0.000000
					}
				}
			}
		}
	}
	JOINT newVegas:Spine
	{
		OFFSET 0.000000 10.199997 -0.299500
		CHANNELS 3 Xrotation Yrotation Zrotation
		JOINT newVegas:Spine1
		{
			OFFSET 0.000000 11.900002 -1.516600
			CHANNELS 3 Xrotation Yrotation Zrotation
			JOINT newVegas:Spine2
			{
				OFFSET 0.000000 13.600006 -2.842500
				CHANNELS 3 Xrotation Yrotation Zrotation
				JOINT newVegas:Neck
				{
					OFFSET 0.000000 9.624100 -2.890100
					CHANNELS 3 Xrotation Yrotation Zrotation
					JOINT newVegas:Head
					{
						OFFSET 0.000000 14.068802 -1.351900
						CHANNELS 3 Xrotation Yrotation Zrotation
						JOINT newVegas:Hair_Back
						{
							OFFSET 0.000000 3.231903 -17.524799
							CHANNELS 3 Xrotation Yrotation Zrotation
							End Site
							{
								OFFSET 0.000000 19.849884 0.000000
							}
						}
						JOINT newVegas:Hair_Front
						{
							OFFSET 0.000000 31.260406 4.573800
							CHANNELS 3 Xrotation Yrotation Zrotation
							JOINT newVegas:Hair_Front1
							{
								OFFSET 0.000000 2.284103 11.993300
								CHANNELS 3 Xrotation Yrotation Zrotation
								JOINT newVegas:Hair_Front2
								{
									OFFSET 0.000000 2.284103 11.993300
									CHANNELS 3 Xrotation Yrotation Zrotation
									End Site
									{
										OFFSET 0.000000 12.208862 0.000000
									}
								}
							}
						}
						JOINT newVegas:Jowel
						{
							OFFSET 0.000000 -7.458206 6.864100
							CHANNELS 3 Xrotation Yrotation Zrotation
							End Site
							{
								OFFSET 0.000000 19.849884 0.000000
							}
						}
					}
				}
				JOINT newVegas:LeftShoulder
				{
					OFFSET 15.263000 10.923401 -0.547700
					CHANNELS 3 Xrotation Yrotation Zrotation
					JOINT newVegas:LeftArm
					{
						OFFSET 25.438599 -2.830597 -13.032500
						CHANNELS 3 Xrotation Yrotation Zrotation
						JOINT newVegas:LeftForeArm
						{
							OFFSET 29.960503 0.000000 0.000000
							CHANNELS 3 Xrotation Yrotation Zrotation
							JOINT newVegas:LeftHand
							{
								OFFSET 27.849251 0.000000 0.000000
								CHANNELS 3 Xrotation Yrotation Zrotation
								JOINT newVegas:LeftHandThumb1
								{
									OFFSET 4.487587 -3.305161 6.305391
									CHANNELS 3 Xrotation Yrotation Zrotation
									JOINT newVegas:LeftHandThumb2
									{
										OFFSET 5.480453 -3.164139 3.164143
										CHANNELS 3 Xrotation Yrotation Zrotation
										JOINT newVegas:LeftHandThumb3
										{
											OFFSET 5.159721 -2.978973 2.978967
											CHANNELS 3 Xrotation Yrotation Zrotation
											End Site
											{
												OFFSET 2.494507 5.926697 1.738678
											}
										}
									}
								}
								JOINT newVegas:LeftHandIndex1
								{
									OFFSET 18.578728 -0.527832 5.208049
									CHANNELS 3 Xrotation Yrotation Zrotation
									JOINT newVegas:LeftHandIndex2
									{
										OFFSET 3.192009 0.000000 0.000000
										CHANNELS 3 Xrotation Yrotation Zrotation
										JOINT newVegas:LeftHandIndex3
										{
											OFFSET 3.835129 0.000000 0.000000
											CHANNELS 3 Xrotation Yrotation Zrotation
											End Site
											{
												OFFSET -0.034599 3.816971 0.371180
											}
										}
									}
								}
								JOINT newVegas:LeftHandMiddle1
								{
									OFFSET 18.476105 0.000000 0.000000
									CHANNELS 3 Xrotation Yrotation Zrotation
									JOINT newVegas:LeftHandMiddle2
									{
										OFFSET 3.324875 0.000000 0.000000
										CHANNELS 3 Xrotation Yrotation Zrotation
										JOINT newVegas:LeftHandMiddle3
										{
											OFFSET 4.596550 0.000000 0.000000
											CHANNELS 3 Xrotation Yrotation Zrotation
											End Site
											{
												OFFSET 0.057701 4.578827 0.399218
											}
										}
									}
								}
								JOINT newVegas:LeftHandRing1
								{
									OFFSET 17.732719 0.121887 -4.201567
									CHANNELS 3 Xrotation Yrotation Zrotation
									JOINT newVegas:LeftHandRing2
									{
										OFFSET 2.733170 0.000000 0.000000
										CHANNELS 3 Xrotation Yrotation Zrotation
										JOINT newVegas:LeftHandRing3
										{
											OFFSET 3.178268 0.000000 0.000000
											CHANNELS 3 Xrotation Yrotation Zrotation
											End Site
											{
												OFFSET 0.119102 3.170624 0.185394
											}
										}
									}
								}
								JOINT newVegas:LeftHandPinky1
								{
									OFFSET 15.989624 -0.606689 -7.535461
									CHANNELS 3 Xrotation Yrotation Zrotation
									JOINT newVegas:LeftHandPinky2
									{
										OFFSET 2.538986 0.000000 0.000000
										CHANNELS 3 Xrotation Yrotation Zrotation
										JOINT newVegas:LeftHandPinky3
										{
											OFFSET 2.593102 0.000000 0.000000
											CHANNELS 3 Xrotation Yrotation Zrotation
											End Site
											{
												OFFSET -0.150902 2.584198 0.152708
											}
										}
									}
								}
							}
							JOINT newVegas:Left_Sleeve
							{
								OFFSET 0.267448 -0.649796 0.577675
								CHANNELS 3 Xrotation Yrotation Zrotation
								End Site
								{
									OFFSET 0.000000 15.991241 0.000000
								}
							}
							JOINT newVegas:Left_CapeC
							{
								OFFSET 15.715958 -8.608795 -6.935905
								CHANNELS 3 Xrotation Yrotation Zrotation
								JOINT newVegas:Left_CapeC1
								{
									OFFSET 0.000000 -8.688499 0.000000
									CHANNELS 3 Xrotation Yrotation Zrotation
									End Site
									{
										OFFSET 0.000000 8.688499 0.000000
									}
								}
							}
						}
						JOINT newVegas:Left_CapeB
						{
							OFFSET 26.118385 -8.608795 -7.079235
							CHANNELS 3 Xrotation Yrotation Zrotation
							JOINT newVegas:Left_CapeB1
							{
								OFFSET 0.000000 -8.688499 0.000000
								CHANNELS 3 Xrotation Yrotation Zrotation
								End Site
								{
									OFFSET 0.000000 8.688499 0.000000
								}
							}
						}
						JOINT newVegas:Left_CapeA
						{
							OFFSET 5.115639 -8.608795 -10.395809
							CHANNELS 3 Xrotation Yrotation Zrotation
							JOINT newVegas:Left_CapeA1
							{
								OFFSET 0.000000 -8.688499 0.000000
								CHANNELS 3 Xrotation Yrotation Zrotation
								End Site
								{
									OFFSET 0.000000 8.688499 0.000000
								}
							}
						}
					}
				}
				JOINT newVegas:RightShoulder
				{
					OFFSET -15.263000 10.923401 -0.547700
					CHANNELS 3 Xrotation Yrotation Zrotation
					JOINT newVegas:RightArm
					{
						OFFSET -25.438599 -2.830597 -13.032500
						CHANNELS 3 Xrotation Yrotation Zrotation
						JOINT newVegas:RightForeArm
						{
							OFFSET -29.960503 0.000000 0.000000
							CHANNELS 3 Xrotation Yrotation Zrotation
							JOINT newVegas:RightHand
							{
								OFFSET -27.849251 0.000000 0.000000
								CHANNELS 3 Xrotation Yrotation Zrotation
								JOINT newVegas:RightHandThumb1
								{
									OFFSET -4.487587 -3.305161 6.305391
									CHANNELS 3 Xrotation Yrotation Zrotation
									JOINT newVegas:RightHandThumb2
									{
										OFFSET -5.480453 -3.164139 3.164143
										CHANNELS 3 Xrotation Yrotation Zrotation
										JOINT newVegas:RightHandThumb3
										{
											OFFSET -5.159721 -2.978973 2.978967
											CHANNELS 3 Xrotation Yrotation Zrotation
											End Site
											{
												OFFSET -2.494507 5.926697 1.738678
											}
										}
									}
								}
								JOINT newVegas:RightHandIndex1
								{
									OFFSET -18.578728 -0.527832 5.208049
									CHANNELS 3 Xrotation Yrotation Zrotation
									JOINT newVegas:RightHandIndex2
									{
										OFFSET -3.192009 0.000000 0.000000
										CHANNELS 3 Xrotation Yrotation Zrotation
										JOINT newVegas:RightHandIndex3
										{
											OFFSET -3.835129 0.000000 0.000000
											CHANNELS 3 Xrotation Yrotation Zrotation
											End Site
											{
												OFFSET 0.034599 3.816971 0.371180
											}
										}
									}
								}
								JOINT newVegas:RightHandMiddle1
								{
									OFFSET -18.476105 0.000000 0.000000
									CHANNELS 3 Xrotation Yrotation Zrotation
									JOINT newVegas:RightHandMiddle2
									{
										OFFSET -3.324875 0.000000 0.000000
										CHANNELS 3 Xrotation Yrotation Zrotation
										JOINT newVegas:RightHandMiddle3
										{
											OFFSET -4.596550 0.000000 0.000000
											CHANNELS 3 Xrotation Yrotation Zrotation
											End Site
											{
												OFFSET -0.057701 4.578827 0.399218
											}
										}
									}
								}
								JOINT newVegas:RightHandRing1
								{
									OFFSET -17.732719 0.121887 -4.201567
									CHANNELS 3 Xrotation Yrotation Zrotation
									JOINT newVegas:RightHandRing2
									{
										OFFSET -2.733170 0.000000 0.000000
										CHANNELS 3 Xrotation Yrotation Zrotation
										JOINT newVegas:RightHandRing3
										{
											OFFSET -3.178268 0.000000 0.000000
											CHANNELS 3 Xrotation Yrotation Zrotation
											End Site
											{
												OFFSET -0.119102 3.170624 0.185394
											}
										}
									}
								}
								JOINT newVegas:RightHandPinky1
								{
									OFFSET -15.989624 -0.606689 -7.535461
									CHANNELS 3 Xrotation Yrotation Zrotation
									JOINT newVegas:RightHandPinky2
									{
										OFFSET -2.538986 0.000000 0.000000
										CHANNELS 3 Xrotation Yrotation Zrotation
										JOINT newVegas:RightHandPinky3
										{
											OFFSET -2.593102 0.000000 0.000000
											CHANNELS 3 Xrotation Yrotation Zrotation
											End Site
											{
												OFFSET 0.150902 2.584198 0.152708
											}
										}
									}
								}
							}
							JOINT newVegas:Right_CapeC
							{
								OFFSET -15.715958 -8.608795 -6.935905
								CHANNELS 3 Xrotation Yrotation Zrotation
								JOINT newVegas:Right_CapeC1
								{
									OFFSET 0.000000 -8.688499 0.000000
									CHANNELS 3 Xrotation Yrotation Zrotation
									End Site
									{
										OFFSET 0.000000 8.688499 0.000000
									}
								}
							}
							JOINT newVegas:Right_Sleeve
							{
								OFFSET -0.267448 -0.649994 0.577675
								CHANNELS 3 Xrotation Yrotation Zrotation
								End Site
								{
									OFFSET 0.000000 15.991302 0.000000
								}
							}
						}
						JOINT newVegas:Right_CapeA
						{
							OFFSET -5.115540 -8.608795 -10.395824
							CHANNELS 3 Xrotation Yrotation Zrotation
							JOINT newVegas:Right_CapeA1
							{
								OFFSET 0.000000 -8.688499 0.000000
								CHANNELS 3 Xrotation Yrotation Zrotation
								End Site
								{
									OFFSET 0.000000 8.688499 0.000000
								}
							}
						}
						JOINT newVegas:Right_CapeB
						{
							OFFSET -26.118187 -8.608795 -7.079266
							CHANNELS 3 Xrotation Yrotation Zrotation
							JOINT newVegas:Right_CapeB1
							{
								OFFSET 0.000000 -8.688499 0.000000
								CHANNELS 3 Xrotation Yrotation Zrotation
								End Site
								{
									OFFSET 0.000000 8.688499 0.000000
								}
							}
						}
					}
				}
				JOINT newVegas:Left_Collar
				{
					OFFSET 18.625099 8.655502 8.828100
					CHANNELS 3 Xrotation Yrotation Zrotation
					JOINT newVegas:Left_Collar1
					{
						OFFSET 14.783401 10.540405 -1.259500
						CHANNELS 3 Xrotation Yrotation Zrotation
						End Site
						{
							OFFSET 0.000000 18.199875 0.000000
						}
					}
				}
				JOINT newVegas:Collar_Back
				{
					OFFSET 0.000000 15.630707 -20.132601
					CHANNELS 3 Xrotation Yrotation Zrotation
					End Site
					{
						OFFSET 0.000000 22.523010 0.000000
					}
				}
				JOINT newVegas:Left_Peck
				{
					OFFSET 17.239599 -5.132599 25.482599
					CHANNELS 3 Xrotation Yrotation Zrotation
					End Site
					{
						OFFSET 0.000000 22.523010 0.000000
					}
				}
				JOINT newVegas:Right_Peck
				{
					OFFSET -17.239599 -5.132202 25.482599
					CHANNELS 3 Xrotation Yrotation Zrotation
					End Site
					{
						OFFSET 0.000000 22.523010 0.000000
					}
				}
				JOINT newVegas:Right_Collar
				{
					OFFSET -18.625099 8.655792 8.828100
					CHANNELS 3 Xrotation Yrotation Zrotation
					JOINT newVegas:Right_Collar1
					{
						OFFSET -14.783401 10.539993 -1.259500
						CHANNELS 3 Xrotation Yrotation Zrotation
						End Site
						{
							OFFSET 0.000000 18.199631 0.000000
						}
					}
				}
			}
		}
		JOINT newVegas:Belly
		{
			OFFSET 0.000000 -6.540398 9.014299
			CHANNELS 3 Xrotation Yrotation Zrotation
			End Site
			{
				OFFSET 0.000000 11.566666 0.000000
			}
		}
	}
	JOINT newVegas:ElvisFacialAnim_Joint
	{
		OFFSET 1.000000 -95.330101 -8.825800
		CHANNELS 3 Xrotation Yrotation Zrotation
		End Site
		{
			OFFSET 0.000000 35.315800 0.000000
		}
	}
}
MOTION
Frames: 4
Frame Time: 0.033333
0.448370 82.296661 9.316971 -19.647879 3.339399 0.822609 -0.000001 -0.000000 -0.000000 -76.219146 0.792355 4.389229 61.481203 5.557801 0.210639 17.546558 -0.420702 -4.170371 -0.000000 -0.000000 0.000000 -0.000001 0.000000 0.000000 -74.612515 1.282288 -2.858697 55.877808 -2.424023 -0.076630 19.981865 0.956502 8.395353 0.000001 -0.000000 0.000000 0.000001 0.000000 -0.000000 21.705045 -0.873508 -0.171689 1.960874 -0.571123 0.885473 1.963497 -0.520515 0.918160 0.621443 0.135751 -0.319088 0.621445 0.135751 -0.319087 -0.000000 0.000000 0.000000 0.621586 0.135751 -0.319088 0.621300 0.135753 -0.319087 -0.000000 0.000000 -0.000000 -0.000000 0.000000 0.000000 0.559644 -7.793502 -10.434344 -46.664180 -19.910510 -67.463998 0.000022 -53.255193 0.000035 4.721461 3.769122 7.231398 21.037341 -30.582548 -15.178224 27.088493 58.387845 -2.088970 0.000001 -0.000000 -0.000001 6.694205 4.198328 -91.457319 4.028739 5.560976 -71.823701 0.000001 -0.000001 -0.000002 5.512558 8.211286 -91.452381 5.872033 5.851007 -90.205864 -0.000002 0.000000 0.000000 6.510885 8.175711 -93.140209 6.101440 5.845696 -92.456781 0.000003 -0.000001 0.000000 15.437407 22.422678 -86.293778 4.379411 5.663563 -75.408342 -0.000000 -0.000001 -0.000003 0.000000 -0.000000 0.000000 0.000000 -0.000000 0.000000 -0.000001 -0.000001 0.000000 0.000002 0.000001 -0.000000 0.000002 0.000000 0.000000 0.000002 0.000001 -0.000000 0.000002 -0.000001 -0.000000 0.579591 9.450744 9.845123 -44.168463 25.849734 63.726075 0.000014 53.811338 -0.000022 16.358108 8.437521 -5.470458 7.079028 3.240682 -0.651808 10.845750 -30.591710 4.442751 0.000001 0.000000 0.000001 1.841873 2.446306 58.721800 3.743530 -4.566872 78.674033 0.000000 0.000001 -0.000001 2.498959 -6.397043 66.699208 3.755553 -4.569257 78.825328 -0.000000 -0.000002 -0.000002 3.253615 -6.702117 70.122909 4.978160 -4.646100 93.956581 -0.000000 0.000002 0.000001 4.283209 -14.858255 65.639866 4.241248 -4.638579 84.870790 0.000000 0.000001 0.000003 -0.000000 -0.000000 -0.000001 0.000002 -0.000000 -0.000001 -0.000000 -0.000001 -0.000001 0.000001 0.000000 0.000001 0.000001 0.000001 -0.000000 0.000001 0.000000 0.000001 0.000001 0.000001 -0.000000 -0.000000 -0.000000 -0.000000 -0.000000 -0.000000 -0.000000 -0.000000 -0.000000 -0.000000 -0.000000 -0.000000 -0.000000 -0.000000 -0.000000 -0.000000 -0.000000 -0.000000 -0.000000 -0.000000 -0.000000 -0.000000 -0.000000 -0.000000 -0.000000 -0.000001 -0.000000 -0.000000 
0.444085 82.286522 9.327637 -19.649015 3.343551 0.835330 0.000001 -0.000000 0.000000 -76.231905 0.812374 4.402768 61.504843 5.520267 0.209465 17.523328 -0.425475 -4.196125 -0.000001 -0.000000 0.000001 -0.000000 0.000000 0.000000 -74.582695 1.283444 -2.890668 55.761658 -2.405874 -0.090596 20.325851 0.804809 8.411343 0.000000 -0.000000 0.000001 0.000001 0.000000 -0.000000 21.746653 -1.001373 -0.169388 1.901203 -0.586247 0.833392 1.903876 -0.536007 0.865666 0.633497 0.134109 -0.293105 0.633495 0.134109 -0.293105 -0.000001 -0.000000 0.000000 0.633495 0.134109 -0.293105 0.633568 0.134111 -0.293105 -0.000000 0.000000 -0.000000 -0.000001 -0.000000 0.000000 0.561927 -7.804424 -10.266939 -46.565689 -19.746154 -67.438610 0.000016 -53.318591 -0.000011 4.549084 3.732408 7.478378 21.037357 -30.582565 -15.178224 27.088470 58.387879 -2.088943 -0.000000 -0.000002 0.000002 6.694200 4.198306 -91.457305 4.028726 5.560985 -71.823708 -0.000000 0.000001 0.000000 5.512563 8.211260 -91.452394 5.872032 5.851016 -90.205878 -0.000003 0.000000 -0.000000 6.510881 8.175705 -93.140189 6.101445 5.845696 -92.456781 -0.000001 -0.000001 -0.000001 15.437402 22.422673 -86.293764 4.379411 5.663556 -75.408342 -0.000001 0.000000 0.000001 0.000002 -0.000000 0.000000 0.000002 -0.000000 0.000000 0.000001 -0.000000 0.000000 0.000003 0.000003 -0.000001 0.000003 0.000002 -0.000001 0.000003 0.000003 -0.000001 0.000003 0.000002 -0.000002 0.567438 9.464129 10.062576 -44.194555 25.958650 63.695373 0.000001 53.769609 -0.000001 16.550894 8.430422 -5.467766 7.079014 3.240690 -0.651817 10.845757 -30.591693 4.442752 -0.000000 -0.000001 0.000001 1.841861 2.446317 58.721793 3.743523 -4.566871 78.674039 0.000001 0.000001 0.000001 2.498947 -6.397021 66.699195 3.755572 -4.569222 78.825301 0.000000 -0.000001 0.000000 3.253605 -6.702100 70.122882 4.978158 -4.646093 93.956608 0.000001 0.000001 0.000000 4.283183 -14.858267 65.639880 4.241265 -4.638588 84.870769 -0.000003 0.000003 -0.000002 -0.000000 0.000000 -0.000000 0.000001 -0.000001 -0.000001 -0.000000 -0.000000 -0.000000 -0.000001 -0.000001 -0.000000 -0.000001 0.000000 -0.000001 -0.000001 -0.000001 -0.000000 -0.000001 -0.000000 -0.000000 0.000000 -0.000000 -0.000000 0.000000 -0.000000 -0.000000 0.000000 -0.000000 -0.000000 0.000000 -0.000000 -0.000000 0.000000 -0.000000 -0.000000 0.000000 -0.000000 -0.000000 0.000000 -0.000000 -0.000000 0.000000 -0.000000 -0.000000 0.000001 -0.000000 0.000000 
0.444470 82.278885 9.328812 -19.662264 3.341796 0.862845 -0.000001 0.000000 -0.000000 -76.221721 0.864490 4.424995 61.497671 5.485299 0.208591 17.533162 -0.422320 -4.218825 -0.000003 0.000000 0.000000 -0.000000 -0.000001 -0.000000 -74.547710 1.359868 -2.937874 55.691126 -2.452995 -0.108450 20.648113 0.629839 8.466918 -0.000002 -0.000000 0.000001 0.000001 -0.000000 -0.000000 21.792840 -1.086437 -0.128391 1.844169 -0.596077 0.793929 1.846830 -0.546698 0.825840 0.643836 0.151676 -0.257992 0.643830 0.151676 -0.257991 0.000000 0.000000 0.000000 0.643834 0.151675 -0.257991 0.643834 0.151676 -0.257992 -0.000002 -0.000000 0.000000 0.000000 0.000000 -0.000000 0.564733 -7.753272 -10.184705 -46.493839 -19.973640 -67.340037 0.000005 -53.252516 0.000011 4.048125 3.810099 7.690198 21.037338 -30.582558 -15.178214 27.088494 58.387858 -2.088975 -0.000000 -0.000001 -0.000001 6.694204 4.198306 -91.457339 4.028743 5.560977 -71.823694 0.000004 -0.000001 0.000001 5.512569 8.211261 -91.452394 5.872040 5.851015 -90.205858 -0.000001 0.000001 0.000000 6.510880 8.175680 -93.140216 6.101439 5.845696 -92.456781 -0.000002 -0.000002 -0.000001 15.437411 22.422652 -86.293778 4.379402 5.663563 -75.408328 -0.000005 -0.000004 0.000004 0.000001 -0.000000 -0.000001 0.000001 -0.000000 -0.000001 0.000000 -0.000000 -0.000001 0.000000 0.000000 -0.000001 0.000000 -0.000001 -0.000000 0.000000 0.000000 -0.000001 0.000000 -0.000002 -0.000001 0.558767 9.516360 10.181021 -44.172350 26.022000 63.631791 0.000059 53.823827 -0.000046 16.632581 8.333941 -5.339707 7.079031 3.240680 -0.651815 10.845758 -30.591697 4.442751 0.000003 -0.000000 -0.000001 1.841880 2.446309 58.721786 3.743525 -4.566862 78.674019 -0.000002 0.000003 0.000002 2.498975 -6.397039 66.699201 3.755563 -4.569239 78.825321 -0.000001 0.000000 0.000002 3.253625 -6.702122 70.122888 4.978171 -4.646102 93.956615 -0.000002 0.000001 0.000001 4.283198 -14.858255 65.639860 4.241256 -4.638582 84.870810 0.000005 0.000003 0.000002 0.000000 0.000000 0.000002 0.000000 -0.000000 0.000001 0.000000 -0.000000 0.000002 0.000002 -0.000002 0.000002 0.000002 -0.000001 -0.000000 0.000002 -0.000002 0.000002 0.000002 -0.000001 0.000001 -0.000000 0.000000 -0.000000 -0.000000 0.000000 -0.000000 -0.000000 0.000000 -0.000000 -0.000000 0.000000 -0.000000 -0.000000 0.000000 -0.000000 -0.000000 0.000000 -0.000000 -0.000000 0.000000 -0.000000 -0.000000 -0.000000 0.000000 -0.000001 0.000000 -0.000000 
0.454840 82.281761 9.320393 -19.702794 3.344296 0.929613 -0.000001 -0.000000 -0.000000 -76.141146 0.977367 4.432499 61.415285 5.488110 0.208633 17.633219 -0.403391 -4.205265 -0.000002 0.000000 0.000000 -0.000001 0.000001 0.000002 -74.498772 1.549221 -3.006920 55.704728 -2.544133 -0.127047 20.886471 0.409467 8.573587 -0.000003 -0.000000 0.000001 0.000002 0.000000 -0.000000 21.817158 -1.143475 -0.006858 1.791959 -0.606342 0.749084 1.794590 -0.557731 0.780565 0.653557 0.197454 -0.202614 0.653551 0.197454 -0.202615 0.000000 -0.000000 0.000000 0.653555 0.197453 -0.202614 0.653627 0.197452 -0.202614 -0.000001 -0.000000 -0.000000 0.000000 -0.000000 0.000000 0.569927 -7.645674 -10.066269 -46.421712 -20.554360 -67.174774 0.000017 -53.013340 0.000016 3.496300 4.004089 7.332478 21.037329 -30.582551 -15.178227 27.088484 58.387838 -2.088968 -0.000000 0.000000 0.000001 6.694209 4.198330 -91.457319 4.028750 5.560988 -71.823708 -0.000002 0.000002 0.000003 5.512564 8.211285 -91.452381 5.872035 5.850997 -90.205864 -0.000001 -0.000000 0.000000 6.510886 8.175704 -93.140216 6.101436 5.845718 -92.456781 -0.000003 0.000001 0.000000 15.437419 22.422674 -86.293778 4.379406 5.663563 -75.408328 -0.000003 -0.000002 0.000000 0.000002 0.000000 0.000000 0.000002 0.000000 0.000000 0.000001 -0.000000 0.000000 -0.000000 0.000001 0.000001 -0.000000 0.000000 0.000000 -0.000000 0.000001 0.000001 -0.000000 -0.000000 0.000001 0.548294 9.613436 10.294908 -44.099898 26.119226 63.460196 -0.000055 53.941347 0.000046 16.617097 8.119375 -5.182175 7.079031 3.240685 -0.651813 10.845749 -30.591697 4.442751 -0.000000 -0.000000 -0.000000 1.841875 2.446317 58.721786 3.743531 -4.566856 78.674026 -0.000007 0.000001 0.000001 2.498967 -6.397024 66.699181 3.755538 -4.569239 78.825335 -0.000001 -0.000003 -0.000001 3.253600 -6.702113 70.122888 4.978175 -4.646112 93.956588 0.000001 0.000001 0.000000 4.283201 -14.858248 65.639860 4.241251 -4.638564 84.870810 0.000003 0.000002 -0.000002 0.000000 -0.000000 -0.000001 0.000002 -0.000001 -0.000001 0.000000 -0.000000 -0.000000 0.000000 0.000001 -0.000002 -0.000000 0.000002 -0.000002 0.000000 0.000001 -0.000002 0.000000 0.000002 -0.000003 0.000000 0.000000 -0.000000 0.000000 0.000000 -0.000000 0.000000 0.000000 -0.000000 0.000000 0.000000 -0.000000 0.000000 0.000000 -0.000000 0.000000 0.000000 -0.000000 0.000000 0.000000 -0.000000 -0.000000 0.000000 -0.000000 -0.000001 -0.000000 -0.000000 
